<?xml version="1.0" standalone="no"?>
<!DOCTYPE svg PUBLIC "-//W3C//DTD SVG 20010904//EN"
 "http://www.w3.org/TR/2001/REC-SVG-20010904/DTD/svg10.dtd">
<svg version="1.0" xmlns="http://www.w3.org/2000/svg"
 width="512.000000pt" height="512.000000pt" viewBox="0 0 512.000000 512.000000"
 preserveAspectRatio="xMidYMid meet">

<g transform="translate(0.000000,512.000000) scale(0.100000,-0.100000)"
fill="#FFFFFF" stroke="none">
<path d="M2510 4901 c-106 -34 -160 -106 -160 -211 0 -61 25 -115 74 -158 45
-40 83 -49 231 -56 905 -43 1650 -710 1802 -1612 26 -159 24 -476 -5 -634
-208 -1144 -1347 -1841 -2456 -1505 -588 178 -1061 639 -1255 1220 -61 182
-101 412 -101 577 0 83 -14 131 -52 174 -43 49 -97 74 -158 74 -88 0 -152 -38
-193 -115 -20 -36 -22 -54 -20 -166 4 -319 84 -645 233 -954 294 -609 866
-1079 1515 -1244 709 -181 1419 -41 2005 395 135 100 364 329 464 464 376 505
535 1115 451 1725 -134 974 -868 1768 -1830 1978 -175 39 -490 66 -545 48z"/>
<path d="M1682 4736 c-103 -34 -157 -113 -150 -221 5 -79 41 -137 107 -172
142 -74 320 30 321 188 0 141 -144 248 -278 205z"/>
<path d="M1020 4280 c-104 -19 -181 -110 -181 -215 0 -66 21 -114 71 -159 64
-58 143 -70 220 -35 103 47 155 145 130 248 -26 108 -133 180 -240 161z"/>
<path d="M2460 4028 c-25 -14 -58 -44 -75 -67 l-30 -43 -3 -612 -2 -611 -372
-185 c-253 -126 -386 -197 -415 -224 -111 -100 -85 -274 51 -341 100 -49 100
-49 627 217 437 219 466 236 494 276 l30 44 3 707 2 707 -23 45 c-36 68 -93
103 -175 107 -56 3 -74 0 -112 -20z"/>
<path d="M491 3568 c-83 -41 -136 -156 -112 -244 45 -167 256 -220 366 -92 45
53 58 96 53 169 -11 148 -170 235 -307 167z"/>
</g>
</svg>
