<?xml version="1.0" standalone="no"?>
<!DOCTYPE svg PUBLIC "-//W3C//DTD SVG 20010904//EN"
 "http://www.w3.org/TR/2001/REC-SVG-20010904/DTD/svg10.dtd">
<svg version="1.0" xmlns="http://www.w3.org/2000/svg"
 width="512.000000pt" height="512.000000pt" viewBox="0 0 512.000000 512.000000"
 preserveAspectRatio="xMidYMid meet">

	<g transform="translate(0.000000,512.000000) scale(0.100000,-0.100000)"
	fill="#FFFFFF" stroke="none">
		<path d="M1319 4520 c-14 -4 -38 -16 -54 -26 -41 -27 -1242 -1831 -1257 -1889
-9 -35 -9 -55 0 -90 8 -31 199 -326 624 -962 549 -821 617 -919 653 -938 40
-20 51 -20 1850 -23 2023 -3 1862 -8 1928 69 19 21 39 56 45 78 9 28 12 498
12 1823 0 1956 4 1836 -58 1902 -15 16 -45 37 -67 47 -38 18 -108 19 -1845 18
-993 0 -1817 -4 -1831 -9z m3381 -1960 l0 -1550 -1602 0 -1603 1 -510 766
c-280 421 -510 773 -510 783 0 10 230 362 510 783 l510 766 1603 1 1602 0 0
-1550z"/>
		<path d="M2271 3345 c-113 -36 -173 -170 -125 -283 10 -24 97 -120 247 -269
l231 -233 -231 -232 c-150 -150 -237 -246 -247 -270 -76 -182 113 -358 289
-270 17 8 134 117 260 243 l231 229 224 -226 c124 -124 243 -235 265 -247 125
-66 285 19 302 160 11 100 -3 121 -260 380 l-231 233 230 232 c257 260 272
282 261 381 -17 141 -177 226 -302 160 -22 -12 -141 -123 -265 -247 l-224
-226 -231 229 c-126 126 -244 235 -260 244 -46 23 -114 28 -164 12z"/>
	</g>
</svg>
