<svg width="600" height="611" viewBox="0 0 600 611" fill="none" xmlns="http://www.w3.org/2000/svg">
	<g clip-path="url(#clip0_120_150)">
		<path d="M0 57.2812C0 42.0893 5.92632 27.5196 16.4752 16.7773C27.0242 6.03497 41.3316 0 56.25 0L112.5 0V210.031C112.5 225.223 118.426 239.793 128.975 250.535C139.524 261.278 153.832 267.312 168.75 267.312H431.25C446.168 267.312 460.476 261.278 471.025 250.535C481.574 239.793 487.5 225.223 487.5 210.031V0H490.725C505.638 0.0133696 519.936 6.05711 530.475 16.8025L583.537 70.7996C594.076 81.5379 599.997 96.097 600 111.278V553.719C600 568.911 594.074 583.48 583.525 594.223C572.976 604.965 558.668 611 543.75 611H525V400.969C525 385.777 519.074 371.207 508.525 360.465C497.976 349.722 483.668 343.688 468.75 343.688H131.25C116.332 343.688 102.024 349.722 91.4752 360.465C80.9263 371.207 75 385.777 75 400.969V611H56.25C41.3316 611 27.0242 604.965 16.4752 594.223C5.92632 583.48 0 568.911 0 553.719L0 57.2812Z" fill="#68A356"/>
		<path d="M112.5 611H487.5V400.969C487.5 395.905 485.525 391.048 482.008 387.467C478.492 383.887 473.723 381.875 468.75 381.875H131.25C126.277 381.875 121.508 383.887 117.992 387.467C114.475 391.048 112.5 395.905 112.5 400.969V611ZM450 0H150V210.031C150 215.095 151.975 219.952 155.492 223.533C159.008 227.113 163.777 229.125 168.75 229.125H431.25C436.223 229.125 440.992 227.113 444.508 223.533C448.025 219.952 450 215.095 450 210.031V0ZM337.5 38.1875H412.5V190.938H337.5V38.1875Z" fill="#68A356"/>
	</g>
	<defs>
		<clipPath id="clip0_120_150">
			<rect width="600" height="611" fill="white"/>
		</clipPath>
	</defs>
</svg>
