<?xml version="1.0" encoding="UTF-8" standalone="no"?>
<svg width="250" height="265" viewBox="0 0 250 265" fill="none" xmlns="http://www.w3.org/2000/svg">
	<path d="M13.3301 11.6972C11.9141 12.4735 10.2539 15.0614 10.2539 16.5624C10.2539 16.9247 10.5957 17.9599 11.0352 18.8915C12.4023 21.9452 13.7695 22.2558 25.2441 22.2558C35.4004 22.2558 35.4004 22.2558 38.3301 23.7567C41.6016 25.3612 44.7266 28.6737 46.0449 31.831C46.4844 32.9696 52.4414 63.5067 59.2285 99.7372L71.582 165.521L62.5488 165.728C54.2969 165.884 53.2227 165.987 51.0254 167.074C41.0645 171.939 38.6719 185.034 46.1426 193.522C47.4121 194.92 49.5117 196.576 50.9277 197.249L53.4668 198.491L144.434 198.646C245.508 198.75 237.598 199.06 239.062 195.282C239.99 193.057 239.307 190.469 237.451 188.916C236.182 187.881 235.693 187.881 146.631 187.881C50.0488 187.881 54.8828 188.036 53.0273 185.241C52.002 183.688 52.002 180.686 53.0273 179.134C54.834 176.391 51.0254 176.546 135.938 176.494C192.578 176.494 215.137 176.339 216.016 175.925C216.65 175.614 217.529 174.631 217.969 173.699C218.408 172.819 223.438 146.992 229.248 116.3C239.014 64.2831 239.697 60.3495 239.062 58.745C237.598 55.0702 245.703 55.3808 148.828 55.3808H61.5723L61.084 52.6376C56.8848 30.744 56.6406 29.7089 54.9805 26.1376C51.6113 18.9433 44.6777 13.4052 36.8652 11.6454C31.8848 10.5585 15.4785 10.5585 13.3301 11.6972ZM227.93 66.871C227.783 67.2333 223.535 89.5927 218.457 116.559L209.229 165.625H145.898H82.5195L82.2754 164.434C81.6406 161.64 63.9648 67.4921 63.9648 66.9228C63.9648 66.3534 80.1758 66.2499 146.045 66.2499C211.523 66.2499 228.076 66.4052 227.93 66.871Z" fill="#DB3026"/>
	<path d="M90.1856 210.137C79.3457 212.155 71.4844 223.697 73.1934 235.032C75.0489 247.092 85.7422 255.528 96.7286 253.665C110.498 251.284 118.311 236.016 112.549 222.714C108.691 213.708 99.3164 208.429 90.1856 210.137ZM99.3164 222.559C100.293 223.283 101.709 224.784 102.441 225.871C103.613 227.683 103.76 228.407 103.76 231.875C103.76 235.343 103.613 236.067 102.441 237.879C101.709 238.966 100.293 240.467 99.2676 241.191C97.7539 242.278 96.9239 242.485 93.75 242.485C90.5762 242.485 89.7461 242.278 88.2325 241.191C84.2774 238.345 82.4707 232.858 83.9356 228.097C84.6192 225.975 87.4512 222.714 89.5508 221.73C91.9922 220.54 97.1192 221.006 99.3164 222.559Z" fill="#DB3026"/>
	<path d="M183.936 210.137C173.096 212.155 165.234 223.697 166.943 235.032C168.799 247.092 179.492 255.528 190.479 253.665C204.248 251.284 212.061 236.016 206.299 222.714C202.441 213.708 193.066 208.429 183.936 210.137ZM193.066 222.559C194.043 223.283 195.459 224.784 196.191 225.871C197.363 227.683 197.51 228.407 197.51 231.875C197.51 235.343 197.363 236.067 196.191 237.879C195.459 238.966 194.043 240.467 193.018 241.191C191.504 242.278 190.674 242.485 187.5 242.485C184.326 242.485 183.496 242.278 181.982 241.191C178.027 238.345 176.221 232.858 177.686 228.097C178.369 225.975 181.201 222.714 183.301 221.73C185.742 220.54 190.869 221.006 193.066 222.559Z" fill="#DB3026"/>
	<path d="M112.801 31.719C104.779 32.9353 98.6518 37.9558 96.1791 45.3313C95.7121 46.7547 95.5472 48.0227 95.4373 51.0765L95.2725 55.0359H86.6456C77.6614 55.0359 77.2768 55.0877 76.3427 56.1746C75.8756 56.6922 75.8481 59.513 75.8481 102.601V148.511L76.6449 149.261L77.4417 150.012H100.163H122.884L122.719 150.658C122.637 150.995 122.472 151.978 122.39 152.806C122.225 154.23 122.252 154.385 123.049 155.213L123.873 156.093L164.37 156.171C202.505 156.222 204.895 156.197 205.802 155.783C207.862 154.799 208.055 156.585 202.917 128.946C194.839 85.2107 195.197 87.1258 194.565 86.5047C193.988 85.9612 193.878 85.9612 174.673 85.8318L155.386 85.7024L155.249 71.2102C155.167 63.2395 155.002 56.511 154.864 56.2522C154.287 55.1136 153.546 55.0359 144.397 55.0359H135.742V51.9305C135.742 46.8841 134.781 43.5198 132.308 40.0262C129.725 36.3772 125.467 33.4788 120.934 32.2884C118.626 31.6931 114.834 31.4085 112.801 31.719ZM119.065 37.3089C123.956 38.4993 127.994 42.0706 129.451 46.47C129.835 47.6346 130.055 49.2649 130.165 51.594L130.33 55.0359H115.741H101.125V51.7234C101.125 48.1263 101.427 46.7029 102.663 44.2962C103.68 42.3294 106.537 39.5603 108.543 38.6028C111.867 36.9983 115.823 36.5066 119.065 37.3089ZM95.3549 70.3304V80.449L96.289 81.3289C97.388 82.3641 98.3496 82.4676 99.6684 81.6912C100.245 81.3548 100.63 80.889 100.822 80.2161C101.015 79.6209 101.125 75.6097 101.125 69.7093V60.2117L115.631 60.2635L130.11 60.3411L130.247 70.6927C130.33 76.386 130.44 81.0701 130.467 81.1219C130.495 81.1477 130.934 81.4065 131.429 81.6912C132.665 82.4158 133.654 82.3382 134.698 81.4583L135.605 80.7078L135.742 70.5115L135.88 60.3411H142.748H149.617V73.0218V85.7024L142.858 85.7801L136.099 85.8318L135.385 86.5564C134.698 87.2293 134.396 88.575 129.231 116.058L123.791 144.836H102.581H81.343V102.705C81.343 79.5174 81.4254 60.4705 81.5353 60.3929C81.6178 60.2893 84.7773 60.2117 88.5413 60.2117H95.3549V70.3304ZM190.251 91.4475C190.581 92.6121 201.186 150.555 201.076 150.658C200.994 150.736 184.619 150.762 164.673 150.736L128.434 150.658L133.709 122.58C136.621 107.13 139.149 93.7249 139.314 92.7415L139.644 91.0076H164.865C188.658 91.0076 190.114 91.0335 190.251 91.4475Z" fill="#0778D5"/>
	<path d="M150.88 104.051C149.754 104.62 149.507 105.422 149.507 108.217C149.479 112.901 150.908 116.395 154.013 119.319C157.035 122.166 160.442 123.486 164.865 123.486C169.316 123.486 172.695 122.166 175.772 119.241C177.805 117.326 179.481 114.35 179.948 111.866C180.388 109.615 180.333 105.888 179.866 105.008C179.042 103.533 176.844 103.248 175.552 104.439C174.811 105.137 174.756 105.344 174.756 107.104C174.756 112.228 172.997 115.437 169.206 117.326C167.887 117.973 167.502 118.051 164.865 118.051C162.09 118.051 161.898 118.025 160.249 117.171C156.568 115.282 154.974 112.28 154.974 107.26C154.974 105.319 154.919 105.163 154.177 104.439C153.271 103.611 152.034 103.455 150.88 104.051Z" fill="#0778D5"/>
</svg>
