<svg width="30" height="30" xmlns="http://www.w3.org/2000/svg" class="bi bi-calculator" fill="currentColor">

 <g>
  <title>Layer 1</title>
  <path id="svg_1" fill="#ffffff" d="m19.10572,7.93241a1,1 0 0 1 1,1l0,12a1,1 0 0 1 -1,1l-8,0a1,1 0 0 1 -1,-1l0,-12a1,1 0 0 1 1,-1l8,0zm-8,-1a2,2 0 0 0 -2,2l0,12a2,2 0 0 0 2,2l8,0a2,2 0 0 0 2,-2l0,-12a2,2 0 0 0 -2,-2l-8,0z"/>
  <path id="svg_2" fill="#ffffff" d="m11.10572,9.43241a0.5,0.5 0 0 1 0.5,-0.5l7,0a0.5,0.5 0 0 1 0.5,0.5l0,2a0.5,0.5 0 0 1 -0.5,0.5l-7,0a0.5,0.5 0 0 1 -0.5,-0.5l0,-2zm0,4a0.5,0.5 0 0 1 0.5,-0.5l1,0a0.5,0.5 0 0 1 0.5,0.5l0,1a0.5,0.5 0 0 1 -0.5,0.5l-1,0a0.5,0.5 0 0 1 -0.5,-0.5l0,-1zm0,3a0.5,0.5 0 0 1 0.5,-0.5l1,0a0.5,0.5 0 0 1 0.5,0.5l0,1a0.5,0.5 0 0 1 -0.5,0.5l-1,0a0.5,0.5 0 0 1 -0.5,-0.5l0,-1zm0,3a0.5,0.5 0 0 1 0.5,-0.5l1,0a0.5,0.5 0 0 1 0.5,0.5l0,1a0.5,0.5 0 0 1 -0.5,0.5l-1,0a0.5,0.5 0 0 1 -0.5,-0.5l0,-1zm3,-6a0.5,0.5 0 0 1 0.5,-0.5l1,0a0.5,0.5 0 0 1 0.5,0.5l0,1a0.5,0.5 0 0 1 -0.5,0.5l-1,0a0.5,0.5 0 0 1 -0.5,-0.5l0,-1zm0,3a0.5,0.5 0 0 1 0.5,-0.5l1,0a0.5,0.5 0 0 1 0.5,0.5l0,1a0.5,0.5 0 0 1 -0.5,0.5l-1,0a0.5,0.5 0 0 1 -0.5,-0.5l0,-1zm0,3a0.5,0.5 0 0 1 0.5,-0.5l1,0a0.5,0.5 0 0 1 0.5,0.5l0,1a0.5,0.5 0 0 1 -0.5,0.5l-1,0a0.5,0.5 0 0 1 -0.5,-0.5l0,-1zm3,-6a0.5,0.5 0 0 1 0.5,-0.5l1,0a0.5,0.5 0 0 1 0.5,0.5l0,1a0.5,0.5 0 0 1 -0.5,0.5l-1,0a0.5,0.5 0 0 1 -0.5,-0.5l0,-1zm0,3a0.5,0.5 0 0 1 0.5,-0.5l1,0a0.5,0.5 0 0 1 0.5,0.5l0,4a0.5,0.5 0 0 1 -0.5,0.5l-1,0a0.5,0.5 0 0 1 -0.5,-0.5l0,-4z"/>
 </g>
</svg>